<svg xmlns="http://www.w3.org/2000/svg" width="10" height="10" viewBox="0 0 10 10">
    <path fill="#787878" fillRule="evenodd" d="M8.487 2.677l-.845-.896L8.765.6l-.4-.412-1.313.177-.767.813.133 1.675-.945 1.002L3.637 1.9 4.672.814 3.904 0H2.38L0 2.488l1.524 1.616L2.57 3.007l1.835 1.958-1.213 1.273-1.535-.153-.767.814L.7 8.267l.401.424 1.113-1.18.845.885-1.112 1.18.4.424 1.301-.177.768-.814-.133-1.686 1.179-1.238L8.654 9.48l1.057-1.12-3.182-3.385.98-1.037 1.534.165.768-.814L10 1.922l-.4-.424z"/>
</svg>
