<svg xmlns="http://www.w3.org/2000/svg" width="10" height="10" viewBox="0 0 10 10">
    <g fill="#787878" fillRule="evenodd">
        <path d="M8.608 5.127c.081 0 .149 0 .23.014-.122-1.3-.838-2.43-1.879-3.06-.283.839-1.054 1.44-1.959 1.44S3.324 2.92 3.04 2.08c-1.04.63-1.756 1.76-1.878 3.06.068-.014.149-.014.23-.014 1.149 0 2.081.964 2.081 2.152 0 .6-.243 1.145-.622 1.536a3.767 3.767 0 0 0 2.163.685c.797 0 1.54-.251 2.162-.685a2.155 2.155 0 0 1-.622-1.536c-.013-1.188.919-2.152 2.054-2.152z"/>
        <path d="M5 2.752c.73 0 1.338-.614 1.338-1.383C6.338.601 5.73 0 5 0c-.73 0-1.338.615-1.338 1.383S4.27 2.753 5 2.753zM1.392 5.896c-.73 0-1.338.614-1.338 1.383 0 .754.595 1.383 1.338 1.383.73 0 1.338-.615 1.338-1.383-.014-.755-.608-1.383-1.338-1.383zM8.608 5.896c-.73 0-1.338.614-1.338 1.383 0 .754.595 1.383 1.338 1.383.73 0 1.338-.615 1.338-1.383 0-.755-.595-1.383-1.338-1.383z"/>
    </g>
</svg>
